<svg width="500" height="192" viewBox="0 0 500 192" fill="none" xmlns="http://www.w3.org/2000/svg">
<rect width="192" height="192" rx="20" fill="black"/>
<path d="M122.51 106.332V39.627C122.51 34.8398 120.41 32.0474 116.211 31.2495V28.415C125.491 23.25 130.173 20.6675 130.257 20.6675C130.803 20.6675 131.643 21.0664 132.777 21.8643C133.911 22.6621 135.002 23.6699 136.052 24.8877C137.102 26.0635 137.753 27.2812 138.005 28.541C138.089 28.457 138.908 28.0161 140.461 27.2183C142.057 26.4204 143.863 25.5176 145.878 24.5098C147.894 23.46 149.679 22.5571 151.232 21.8013C152.786 21.0454 153.584 20.6675 153.626 20.6675C155.348 20.6675 157.237 21.6963 159.295 23.7539C163.242 27.7012 165.216 32.9922 165.216 39.627V108.032C165.216 108.326 164.313 108.935 162.507 109.859C160.702 110.741 158.413 111.749 155.642 112.882C152.87 114.016 150.015 115.129 147.075 116.221C144.136 117.312 141.49 118.215 139.139 118.929C136.787 119.643 135.17 120 134.289 120C130.257 120 126.898 117.333 124.21 112C114.804 117.333 108.841 120 106.322 120C104.642 120 102.962 119.139 101.283 117.417C99.603 115.654 98.1963 113.554 97.0625 111.119C95.9707 108.683 95.4248 106.437 95.4248 104.379V39.627C95.4248 34.8398 93.3252 32.0474 89.126 31.2495V28.415L103.172 20.5415C105.062 21.2974 106.826 22.5571 108.463 24.3208C110.101 26.0845 110.92 27.7012 110.92 29.1709V94.8677C110.92 103.014 113.46 107.087 118.542 107.087C119.885 107.087 121.208 106.835 122.51 106.332ZM138.131 96.1274C138.131 98.8569 138.677 101.418 139.769 103.812C140.734 105.954 142.099 107.129 143.863 107.339C145.668 107.507 147.6 107.129 149.658 106.206V44.2881C149.658 39.7949 148.734 36.8135 146.886 35.3438C145.081 33.832 142.162 33.0342 138.131 32.9502V96.1274Z" fill="white"/>
<rect x="20" y="156" width="98" height="16" fill="white"/>
<path d="M232.092 158.622L228.024 162.826H226.486V102.055L230.417 97.8848H232.092V158.622ZM265.656 141.635C265.656 142.774 265.987 143.743 266.647 144.54C267.331 145.383 268.06 145.782 268.835 145.736C269.632 145.691 270.669 145.349 271.945 144.711V110.053C271.945 108.321 271.774 107.09 271.433 106.361C271.091 105.609 270.339 105.233 269.177 105.233V103.046L283.498 97.0303L284.626 99.2861C283.601 99.2861 282.644 99.89 281.755 101.098C280.866 102.26 280.422 104.026 280.422 106.396V144.506C280.422 144.665 279.932 144.996 278.952 145.497C277.972 145.976 276.73 146.522 275.227 147.138C273.723 147.753 272.162 148.357 270.544 148.949C268.926 149.542 267.456 150.032 266.135 150.419C264.813 150.806 263.868 151 263.298 151C262.341 151 261.395 150.476 260.461 149.428C259.527 148.357 258.752 147.115 258.137 145.702C257.544 144.267 257.248 143.002 257.248 141.908V107.387C257.248 104.789 256.109 103.274 253.83 102.841V101.303L261.452 97.0303C262.478 97.4404 263.435 98.124 264.323 99.0811C265.212 100.038 265.656 100.938 265.656 101.781V141.635ZM286.335 102.362V98.0898C286.335 98.0215 286.62 97.862 287.189 97.6113C287.782 97.3607 288.465 97.0872 289.24 96.791C290.038 96.4948 290.756 96.2441 291.394 96.0391C292.054 95.8112 292.465 95.6973 292.624 95.6973C292.943 95.6973 293.387 96.096 293.957 96.8936C294.527 97.6911 294.812 98.5114 294.812 99.3545V104.447C294.812 104.516 294.527 104.675 293.957 104.926C293.41 105.176 292.761 105.45 292.009 105.746C291.257 106.042 290.55 106.304 289.89 106.532C289.229 106.737 288.796 106.84 288.591 106.84C288.044 106.84 287.531 106.373 287.053 105.438C286.574 104.504 286.335 103.479 286.335 102.362ZM295.803 115.863V140.644C295.803 143.469 296.76 145.076 298.674 145.463V147.001L291.599 151C290.573 150.59 289.616 149.906 288.728 148.949C287.839 147.992 287.395 147.092 287.395 146.249V121.469C287.395 118.598 286.438 116.98 284.523 116.615V115.077L291.599 111.112C292.624 111.522 293.581 112.206 294.47 113.163C295.358 114.12 295.803 115.02 295.803 115.863ZM325.949 144.506C325.949 144.688 325.437 145.03 324.411 145.531C323.409 146.01 322.132 146.568 320.583 147.206C319.034 147.821 317.427 148.425 315.764 149.018C314.123 149.587 312.653 150.066 311.354 150.453C310.056 150.818 309.178 151 308.723 151C307.948 151 307.093 150.51 306.159 149.53C305.248 148.528 304.45 147.252 303.767 145.702C303.106 144.13 302.775 142.489 302.775 140.78V111.591C302.775 110.338 302.559 109.449 302.126 108.925C301.716 108.378 300.998 108.104 299.973 108.104V106.122C303.003 104.527 305.874 102.989 308.586 101.508C311.298 100.004 313.838 98.557 316.208 97.167L317.336 99.4229C316.857 99.6507 316.197 100.106 315.354 100.79C314.533 101.451 313.838 102.134 313.269 102.841C311.879 104.595 311.184 106.601 311.184 108.856V114.804C316.014 112.343 318.806 111.112 319.558 111.112C320.378 111.112 321.289 111.568 322.292 112.479C323.295 113.368 324.149 114.496 324.855 115.863C325.585 117.23 325.949 118.632 325.949 120.067V144.506ZM311.184 117.743V138.388C311.184 142.512 312.255 144.574 314.396 144.574C315.536 144.574 316.561 144.198 317.473 143.446V125.946C317.473 121.366 316.63 118.769 314.943 118.153C314.169 117.88 312.915 117.743 311.184 117.743ZM350.012 111.112C350.262 111.112 350.843 111.465 351.755 112.172C352.689 112.878 353.623 113.881 354.558 115.18C355.492 116.479 355.959 117.732 355.959 118.939V130.697C355.959 131.54 354.729 132.566 352.268 133.773C351.014 134.389 349.59 135.015 347.995 135.653C346.4 136.291 344.965 136.827 343.688 137.26C342.412 137.693 341.626 137.909 341.33 137.909C341.33 141.487 342.891 143.708 346.013 144.574C347.494 144.939 349.34 145.121 351.55 145.121V147.138C343.871 149.713 339.781 151 339.279 151C338.368 151 337.411 150.544 336.408 149.633C335.406 148.699 334.562 147.479 333.879 145.976C333.195 144.472 332.854 142.831 332.854 141.054V117.538C332.854 117.401 333.378 117.105 334.426 116.649C335.497 116.171 336.83 115.624 338.425 115.009C340.02 114.394 341.638 113.79 343.278 113.197C344.942 112.582 346.4 112.081 347.653 111.693C348.907 111.306 349.693 111.112 350.012 111.112ZM347.551 122.221C347.551 120.945 347.255 119.84 346.662 118.905C346.047 117.994 345.261 117.538 344.304 117.538C343.369 117.538 342.355 117.891 341.262 118.598V134.765C345.454 133.603 347.551 131.085 347.551 127.211V122.221ZM370.998 141.635C370.998 142.774 371.328 143.743 371.989 144.54C372.673 145.383 373.402 145.782 374.177 145.736C374.974 145.691 376.011 145.349 377.287 144.711V110.053C377.287 108.321 377.116 107.09 376.774 106.361C376.433 105.609 375.681 105.233 374.519 105.233V103.046L388.84 97.0303L389.968 99.2861C388.942 99.2861 387.985 99.89 387.097 101.098C386.208 102.26 385.764 104.026 385.764 106.396V144.506C385.764 144.665 385.274 144.996 384.294 145.497C383.314 145.976 382.072 146.522 380.568 147.138C379.064 147.753 377.504 148.357 375.886 148.949C374.268 149.542 372.798 150.032 371.477 150.419C370.155 150.806 369.209 151 368.64 151C367.683 151 366.737 150.476 365.803 149.428C364.868 148.357 364.094 147.115 363.479 145.702C362.886 144.267 362.59 143.002 362.59 141.908V107.387C362.59 104.789 361.451 103.274 359.172 102.841V101.303L366.794 97.0303C367.819 97.4404 368.776 98.124 369.665 99.0811C370.554 100.038 370.998 100.938 370.998 101.781V141.635ZM405.656 111.112C405.907 111.112 406.488 111.465 407.399 112.172C408.334 112.878 409.268 113.881 410.202 115.18C411.136 116.479 411.604 117.732 411.604 118.939V130.697C411.604 131.54 410.373 132.566 407.912 133.773C406.659 134.389 405.235 135.015 403.64 135.653C402.045 136.291 400.609 136.827 399.333 137.26C398.057 137.693 397.271 137.909 396.975 137.909C396.975 141.487 398.535 143.708 401.657 144.574C403.138 144.939 404.984 145.121 407.194 145.121V147.138C399.515 149.713 395.425 151 394.924 151C394.012 151 393.055 150.544 392.053 149.633C391.05 148.699 390.207 147.479 389.523 145.976C388.84 144.472 388.498 142.831 388.498 141.054V117.538C388.498 117.401 389.022 117.105 390.07 116.649C391.141 116.171 392.474 115.624 394.069 115.009C395.664 114.394 397.282 113.79 398.923 113.197C400.586 112.582 402.045 112.081 403.298 111.693C404.551 111.306 405.337 111.112 405.656 111.112ZM403.195 122.221C403.195 120.945 402.899 119.84 402.307 118.905C401.691 117.994 400.905 117.538 399.948 117.538C399.014 117.538 398 117.891 396.906 118.598V134.765C401.099 133.603 403.195 131.085 403.195 127.211V122.221ZM414.816 116.854V115.316L422.507 111.112C422.689 111.158 422.871 111.215 423.054 111.283C423.259 111.329 423.475 111.397 423.703 111.488C424.159 111.648 424.763 112.104 425.515 112.855C426.267 113.607 426.643 114.451 426.643 115.385C426.802 115.316 427.907 114.576 429.958 113.163C431.94 111.796 433.216 111.112 433.786 111.112C434.789 111.112 435.757 111.579 436.691 112.514C437.648 113.448 438.423 114.564 439.016 115.863C439.631 117.139 439.938 118.324 439.938 119.418V122.87L432.727 126.903L431.53 125.946C431.53 122.05 431.166 119.805 430.437 119.213C429.571 118.62 428.306 118.324 426.643 118.324V140.644C426.643 143.469 427.6 145.076 429.514 145.463V147.001L422.438 151C421.413 150.59 420.456 149.906 419.567 148.949C418.679 147.992 418.234 147.092 418.234 146.249V123.007C418.234 120.956 417.87 119.418 417.141 118.393C416.434 117.367 415.66 116.854 414.816 116.854ZM448.039 135.653C446.877 135.653 445.874 134.776 445.031 133.021C444.188 131.244 443.767 129.068 443.767 126.493V118.939C443.767 118.575 444.245 118.085 445.202 117.47C446.182 116.832 447.401 116.148 448.859 115.419C450.34 114.69 451.844 114.006 453.371 113.368C454.898 112.707 456.242 112.172 457.404 111.762C458.566 111.329 459.296 111.112 459.592 111.112C460.002 111.112 460.367 111.363 460.686 111.864C461.027 112.343 461.289 112.73 461.472 113.026C461.722 113.437 462.019 113.961 462.36 114.599C462.702 115.237 463.044 115.818 463.386 116.342C463.955 117.458 464.719 118.017 465.676 118.017V119.418C465.311 119.577 464.878 119.783 464.377 120.033C463.876 120.284 463.329 120.569 462.736 120.888C459.774 122.528 458.168 123.349 457.917 123.349C457.211 123.349 456.447 122.198 455.627 119.896C454.807 117.618 454.077 116.479 453.439 116.479C452.596 116.479 452.175 117.185 452.175 118.598V127.211C452.175 129.079 452.596 130.014 453.439 130.014C453.645 130.014 455.091 129.398 457.78 128.168C460.515 126.96 462.144 126.356 462.668 126.356C463.807 126.356 464.799 127.257 465.642 129.057C466.507 130.902 466.94 133.204 466.94 135.961V143.856C466.94 144.221 466.405 144.722 465.334 145.36C464.286 145.976 462.953 146.648 461.335 147.377C459.74 148.106 458.111 148.801 456.447 149.462C454.784 150.1 453.326 150.624 452.072 151.034C450.819 151.467 450.033 151.684 449.714 151.684C449.395 151.684 449.087 151.387 448.791 150.795C448.426 150.089 447.993 149.177 447.492 148.061C446.991 146.944 446.478 145.941 445.954 145.053C445.339 143.936 444.564 143.378 443.63 143.378V141.977C444.017 141.794 444.45 141.589 444.929 141.361C445.43 141.111 446 140.826 446.638 140.507C449.577 138.866 451.161 138.046 451.389 138.046C452.095 138.046 452.972 139.424 454.021 142.182C455.069 144.939 455.923 146.317 456.584 146.317C457.04 146.317 457.473 146.135 457.883 145.771C458.316 145.383 458.532 144.859 458.532 144.198V135.448C458.532 133.352 457.951 132.304 456.789 132.304C456.379 132.304 454.909 132.862 452.38 133.979C449.851 135.095 448.404 135.653 448.039 135.653ZM490.354 111.112C490.604 111.112 491.185 111.465 492.097 112.172C493.031 112.878 493.965 113.881 494.899 115.18C495.834 116.479 496.301 117.732 496.301 118.939V130.697C496.301 131.54 495.07 132.566 492.609 133.773C491.356 134.389 489.932 135.015 488.337 135.653C486.742 136.291 485.306 136.827 484.03 137.26C482.754 137.693 481.968 137.909 481.672 137.909C481.672 141.487 483.233 143.708 486.354 144.574C487.836 144.939 489.681 145.121 491.892 145.121V147.138C484.213 149.713 480.122 151 479.621 151C478.71 151 477.753 150.544 476.75 149.633C475.747 148.699 474.904 147.479 474.221 145.976C473.537 144.472 473.195 142.831 473.195 141.054V117.538C473.195 117.401 473.719 117.105 474.768 116.649C475.839 116.171 477.172 115.624 478.767 115.009C480.362 114.394 481.979 113.79 483.62 113.197C485.284 112.582 486.742 112.081 487.995 111.693C489.248 111.306 490.035 111.112 490.354 111.112ZM487.893 122.221C487.893 120.945 487.596 119.84 487.004 118.905C486.389 117.994 485.603 117.538 484.646 117.538C483.711 117.538 482.697 117.891 481.604 118.598V134.765C485.796 133.603 487.893 131.085 487.893 127.211V122.221Z" fill="black"/>
</svg>
